<svg xmlns="http://www.w3.org/2000/svg" viewBox="0 0 25.4 25.4"><g fill="currentColor"><path d="M4.789 21.694c-5.917-.797-6.796-12.2-.256-17.884C7.082 1.55 10.75.175 14.127 1.155c3.88.985 4.973 3.429 5.434 4.489.883 2.731-3.976 8.73-5.544 11.336-4.003-3.502-3.634-3.391-2.765-2.321.607.7 1.117 1.888.567 2.786-1.107 3.257-5.801 4.303-7.03 4.249m4.381-3.838c-3.04.156-3.892-1.134-4.081-3.001-1.737 4.45 2.42 4.154 4.081 3M8 5.033c-2.195 1.67-5.348 4.932-4.582 8.718C3.572 10.967 6.56 6.853 8 5.033m1.137 5.077c1.47-.546 3.22-.144 4.327.958.722-1.075-.84-2.119-1.672-2.34-1.05-.282-2.772-.16-2.655 1.382" class="text-orange-300/75 dark:text-orange-600/75"/><path d="M1.524 21.06c10.023 4.332 10.574-3.64 9.984-5.032-.559-1.61-2.437-3.065-4.168-2.344-.652.113-1.79 2.129-1.118.523.74-1.379 2.54-1.51 3.882-1.067 2.8.594 3.927 4.401 8.828 1.648-.98 2.287-3.154 5.615-5.079 7.166 13.66-9.494 1.702-19.172.025-20.903 5.41.53 9.485 6.161 8.681 11.324 1.64-.635.058-7.908-1.734-9.595 5.627 1.514 5.848 12.818 1.316 19.455 2.109-.207 2.364.312 2.33.497-3.838 1.22-15.418 4.391-22.947-1.672" class="text-indigo-500"/></g></svg>